<svg id="Layer_1" data-name="Layer 1" xmlns="http://www.w3.org/2000/svg" viewBox="0 0 1000 520"><defs><style>.cls-1,.cls-10,.cls-6,.cls-8{isolation:isolate;}.cls-1,.cls-16,.cls-8{font-size:12px;}.cls-1,.cls-10,.cls-6{fill:#777;}.cls-1{font-family:Arial-Black, Arial Black;}.cls-2{letter-spacing:0.03em;}.cls-3{letter-spacing:-0.04em;}.cls-4{letter-spacing:0.02em;}.cls-5{fill:none;stroke:#eee;}.cls-22,.cls-6{font-size:11px;font-family:Helvetica, Helvetica;}.cls-7{fill:#f15f36;}.cls-10,.cls-8{font-family:ArialMT, Arial;}.cls-9{fill:#19a0aa;}.cls-10{font-size:10px;}.cls-11{letter-spacing:-0.02em;}.cls-12{letter-spacing:-0.07em;}.cls-13{letter-spacing:-0.04em;}.cls-14{letter-spacing:-0.09em;}.cls-15{font-size:18px;font-family:Tahoma-Bold, Tahoma;font-weight:700;}.cls-16{fill:#555;font-family:Tahoma, Tahoma;}.cls-17{letter-spacing:0em;}.cls-18{letter-spacing:-0.01em;}.cls-19{letter-spacing:-0.02em;}.cls-20{letter-spacing:-0.01em;}.cls-21{letter-spacing:0em;}</style></defs><title>diverging-brand-chart</title><text class="cls-1" transform="translate(272.35 145.06)">Dist<tspan class="cls-2" x="25.99" y="0">r</tspan><tspan x="31.71" y="0">ust</tspan></text><text class="cls-1" transform="translate(681.27 145.06)"><tspan class="cls-3">T</tspan><tspan class="cls-2" x="8.15" y="0">r</tspan><tspan x="13.88" y="0">ust</tspan></text><text class="cls-1" transform="translate(479.1 145.06)">B<tspan class="cls-4" x="9.33" y="0">r</tspan><tspan x="14.87" y="0">and</tspan></text><line class="cls-5" x1="429.04" y1="150.06" x2="429.04" y2="460.06"/><text class="cls-6" transform="translate(425.98 470.87)">0</text><line class="cls-5" x1="381.54" y1="150.06" x2="381.54" y2="460.06"/><text class="cls-6" transform="translate(372.36 470.87)">200</text><line class="cls-5" x1="334.04" y1="150.06" x2="334.04" y2="460.06"/><text class="cls-6" transform="translate(324.86 470.87)">400</text><line class="cls-5" x1="286.54" y1="150.06" x2="286.54" y2="460.06"/><text class="cls-6" transform="translate(277.36 470.87)">600</text><line class="cls-5" x1="239.04" y1="150.06" x2="239.04" y2="460.06"/><text class="cls-6" transform="translate(229.86 470.87)">800</text><line class="cls-5" x1="191.54" y1="150.06" x2="191.54" y2="460.06"/><text class="cls-6" transform="translate(179.3 470.87)">1000</text><line class="cls-5" x1="144.04" y1="150.06" x2="144.04" y2="460.06"/><text class="cls-6" transform="translate(131.8 470.87)">1200</text><line class="cls-5" x1="96.54" y1="150.06" x2="96.54" y2="460.06"/><text class="cls-6" transform="translate(84.3 470.87)">1400</text><line class="cls-5" x1="49.04" y1="150.06" x2="49.04" y2="460.06"/><text class="cls-6" transform="translate(36.8 470.87)">1600</text><line class="cls-5" x1="569.04" y1="150.06" x2="569.04" y2="460.06"/><text class="cls-6" transform="translate(565.98 470.87)">0</text><line class="cls-5" x1="616.54" y1="150.06" x2="616.54" y2="460.06"/><text class="cls-6" transform="translate(607.36 470.87)">200</text><line class="cls-5" x1="664.04" y1="150.06" x2="664.04" y2="460.06"/><text class="cls-6" transform="translate(654.86 470.87)">400</text><line class="cls-5" x1="711.54" y1="150.06" x2="711.54" y2="460.06"/><text class="cls-6" transform="translate(702.36 470.87)">600</text><line class="cls-5" x1="759.04" y1="150.06" x2="759.04" y2="460.06"/><text class="cls-6" transform="translate(749.86 470.87)">800</text><line class="cls-5" x1="806.54" y1="150.06" x2="806.54" y2="460.06"/><text class="cls-6" transform="translate(794.3 470.87)">1000</text><line class="cls-5" x1="854.04" y1="150.06" x2="854.04" y2="460.06"/><text class="cls-6" transform="translate(841.8 470.87)">1200</text><line class="cls-5" x1="901.54" y1="150.06" x2="901.54" y2="460.06"/><text class="cls-6" transform="translate(889.3 470.87)">1400</text><line class="cls-5" x1="949.04" y1="150.06" x2="949.04" y2="460.06"/><text class="cls-6" transform="translate(936.8 470.87)">1600</text><rect class="cls-7" x="207.42" y="150.06" width="221.11" height="19"/><text class="cls-8" transform="translate(184.4 164.26)">931</text><rect class="cls-9" x="568.54" y="150.06" width="108.06" height="19"/><text class="cls-8" transform="translate(679.6 164.26)">455</text><text class="cls-10" transform="translate(479.64 164.06)">Breitbart</text><rect class="cls-7" x="331.4" y="170.06" width="97.14" height="19"/><text class="cls-8" transform="translate(308.38 184.26)">409</text><rect class="cls-9" x="568.54" y="170.06" width="125.64" height="19"/><text class="cls-8" transform="translate(697.17 184.26)">529</text><text class="cls-10" transform="translate(475.01 184.06)"><tspan class="cls-11">V</tspan><tspan x="6.49" y="0">ice News</tspan></text><rect class="cls-7" x="267.04" y="190.06" width="161.5" height="19"/><text class="cls-8" transform="translate(244.01 204.26)">680</text><rect class="cls-9" x="568.54" y="190.06" width="174.32" height="19"/><text class="cls-8" transform="translate(745.86 204.26)">734</text><text class="cls-10" transform="translate(463.8 204.06)">Buzzfeed News</text><rect class="cls-7" x="285.32" y="210.06" width="143.21" height="19"/><text class="cls-8" transform="translate(262.3 224.26)">603</text><rect class="cls-9" x="568.54" y="210.06" width="212.8" height="19"/><text class="cls-8" transform="translate(784.34 224.26)">896</text><text class="cls-10" transform="translate(469.17 224.06)"><tspan class="cls-12">Y</tspan><tspan x="5.93" y="0">ahoo! News</tspan></text><rect class="cls-7" x="265.85" y="230.06" width="162.69" height="19"/><text class="cls-8" transform="translate(242.83 244.26)">685</text><rect class="cls-9" x="568.54" y="230.06" width="226.81" height="19"/><text class="cls-8" transform="translate(798.35 244.26)">955</text><text class="cls-10" transform="translate(440.63 244.06)">Hu<tspan class="cls-11" x="12.78" y="0">f</tspan><tspan x="15.38" y="0">fPost (Hu</tspan><tspan class="cls-11" x="57.06" y="0">f</tspan><tspan x="59.66" y="0">fington Post)</tspan></text><rect class="cls-7" x="309.31" y="250.06" width="119.22" height="19"/><text class="cls-8" transform="translate(286.29 264.26)">502</text><rect class="cls-9" x="568.54" y="250.06" width="231.8" height="19"/><text class="cls-8" transform="translate(803.34 264.26)">976</text><text class="cls-10" transform="translate(474.09 264.06)">NPR News</text><rect class="cls-7" x="204.57" y="270.06" width="223.96" height="19"/><text class="cls-8" transform="translate(181.55 284.26)">943</text><rect class="cls-9" x="568.54" y="270.06" width="245.81" height="19"/><text class="cls-8" transform="translate(817.35 284.26)">1035</text><text class="cls-10" transform="translate(476.31 284.06)">Fox News</text><rect class="cls-7" x="246.37" y="290.06" width="182.16" height="19"/><text class="cls-8" transform="translate(223.35 304.26)">767</text><rect class="cls-9" x="568.54" y="290.06" width="288.56" height="19"/><text class="cls-8" transform="translate(860.1 304.26)">1215</text><text class="cls-10" transform="translate(487.7 304.06)">CNN</text><rect class="cls-7" x="289.6" y="310.06" width="138.94" height="19"/><text class="cls-8" transform="translate(266.58 324.26)">585</text><rect class="cls-9" x="568.54" y="310.06" width="290.94" height="19"/><text class="cls-8" transform="translate(862.47 324.26)">1225</text><text class="cls-10" transform="translate(460.92 324.06)"><tspan class="cls-13">W</tspan><tspan x="9.07" y="0">ashington Post</tspan></text><rect class="cls-7" x="270.84" y="330.06" width="157.7" height="19"/><text class="cls-8" transform="translate(247.81 344.26)">664</text><rect class="cls-9" x="568.54" y="330.06" width="294.5" height="19"/><text class="cls-8" transform="translate(866.04 344.26)">1240</text><text class="cls-10" transform="translate(454.64 344.06)">NBC/MSNBC News</text><rect class="cls-7" x="274.4" y="350.06" width="154.14" height="19"/><text class="cls-8" transform="translate(251.38 364.26)">649</text><rect class="cls-9" x="568.54" y="350.06" width="299.01" height="19"/><text class="cls-8" transform="translate(870.55 364.26)">1259</text><text class="cls-10" transform="translate(462.69 364.06)">New<tspan class="cls-11" x="20" y="0"> </tspan><tspan class="cls-14" x="22.6" y="0">Y</tspan><tspan x="28.35" y="0">ork</tspan><tspan class="cls-11" x="42.25" y="0"> </tspan><tspan class="cls-13" x="44.84" y="0">T</tspan><tspan x="50.58" y="0">imes</tspan></text><rect class="cls-7" x="292.45" y="370.06" width="136.09" height="19"/><text class="cls-8" transform="translate(269.43 384.26)">573</text><rect class="cls-9" x="568.54" y="370.06" width="308.99" height="19"/><text class="cls-8" transform="translate(880.52 384.26)">1301</text><text class="cls-10" transform="translate(474.36 384.06)">ABC News</text><rect class="cls-7" x="290.07" y="390.06" width="138.46" height="19"/><text class="cls-8" transform="translate(267.05 404.26)">583</text><rect class="cls-9" x="568.54" y="390.06" width="311.6" height="19"/><text class="cls-8" transform="translate(883.14 404.26)">1312</text><text class="cls-10" transform="translate(474.36 404.06)">CBS News</text><rect class="cls-7" x="322.37" y="410.06" width="106.16" height="19"/><text class="cls-8" transform="translate(299.35 424.26)">447</text><rect class="cls-9" x="568.54" y="410.06" width="313.26" height="19"/><text class="cls-8" transform="translate(884.8 424.26)">1319</text><text class="cls-10" transform="translate(456.48 424.06)"><tspan class="cls-13">W</tspan><tspan x="9.07" y="0">all Street Journal</tspan></text><rect class="cls-7" x="349.45" y="430.06" width="79.09" height="19"/><text class="cls-8" transform="translate(326.43 444.26)">333</text><rect class="cls-9" x="568.54" y="430.06" width="359.81" height="19"/><text class="cls-8" transform="translate(931.35 444.26)">1515</text><text class="cls-10" transform="translate(451.29 444.06)">Local television news</text><text class="cls-15" transform="translate(47.26 68.69)">Trust in media brands</text><text class="cls-16" transform="translate(48.49 89)">On a scale <tspan class="cls-17" x="58.98" y="0">fr</tspan><tspan x="67.01" y="0">om 1-10 sur</tspan><tspan class="cls-18" x="131.48" y="0">v</tspan><tspan x="137.37" y="0">ey participants </tspan><tspan class="cls-19" x="218.44" y="0">r</tspan><tspan x="222.56" y="0">ated their </tspan><tspan class="cls-20" x="277.41" y="0">o</tspan><tspan class="cls-18" x="283.86" y="0">v</tspan><tspan x="289.74" y="0">e</tspan><tspan class="cls-19" x="296.06" y="0">r</tspan><tspan x="300.18" y="0">a</tspan><tspan class="cls-21" x="306.47" y="0">l</tspan><tspan x="309.25" y="0">l trust in p</tspan><tspan class="cls-17" x="363.71" y="0">r</tspan><tspan class="cls-20" x="367.97" y="0">o</tspan><tspan x="374.42" y="0">vided media b</tspan><tspan class="cls-19" x="448.92" y="0">r</tspan><tspan x="453.04" y="0">ands.</tspan></text><text class="cls-22" transform="translate(458.92 487.62)">participant count</text></svg>